<svg xmlns="http://www.w3.org/2000/svg" xmlns:xlink="http://www.w3.org/1999/xlink" width="258" zoomAndPan="magnify" viewBox="0 0 193.5 181.5" height="242" preserveAspectRatio="xMidYMid meet" version="1.0"><defs><clipPath id="08d589dc99"><path d="M 59.515625 23.167969 L 180.679688 23.167969 L 180.679688 180.984375 L 59.515625 180.984375 Z M 59.515625 23.167969 " clip-rule="nonzero"/></clipPath></defs><g clip-path="url(#08d589dc99)"><path fill="#000000" d="M 76.550781 23.207031 C 76.261719 23.203125 75.992188 23.359375 75.851562 23.613281 L 75.25 24.703125 L 71.453125 26.097656 C 70.238281 26.542969 69.429688 27.699219 69.433594 28.996094 L 69.433594 33.632812 L 62.027344 33.140625 C 61.984375 33.136719 61.9375 33.132812 61.894531 33.132812 C 60.59375 33.121094 59.527344 34.167969 59.515625 35.46875 C 59.515625 35.476562 59.515625 35.488281 59.515625 35.496094 L 59.515625 87.386719 C 59.515625 88.625 60.476562 89.65625 61.710938 89.738281 L 115.523438 93.296875 C 115.503906 93.410156 115.453125 93.519531 115.453125 93.640625 L 115.453125 164.964844 L 113.621094 164.964844 C 112.875 164.964844 112.269531 165.574219 112.265625 166.324219 L 112.265625 171.707031 L 111.628906 172.191406 L 108.488281 174.601562 C 108.113281 174.886719 107.910156 175.347656 107.957031 175.816406 L 107.957031 179.59375 C 107.960938 180.339844 108.570312 180.949219 109.320312 180.949219 L 131.308594 180.949219 C 132.058594 180.949219 132.664062 180.339844 132.664062 179.59375 L 132.664062 175.816406 C 132.714844 175.347656 132.515625 174.886719 132.140625 174.601562 L 129 172.191406 L 128.363281 171.707031 L 128.363281 166.324219 C 128.363281 165.574219 127.757812 164.964844 127.007812 164.964844 L 124.742188 164.964844 L 124.742188 93.90625 L 178.171875 97.4375 C 179.46875 97.519531 180.589844 96.539062 180.675781 95.238281 C 180.679688 95.1875 180.679688 95.136719 180.679688 95.082031 L 180.679688 43.191406 C 180.679688 41.949219 179.722656 40.921875 178.484375 40.835938 L 159.335938 39.570312 L 159.335938 34.570312 C 159.335938 34.109375 159.625 33.699219 160.058594 33.539062 L 163.871094 32.140625 L 166.472656 34.296875 C 166.605469 34.40625 166.773438 34.46875 166.945312 34.472656 L 174.058594 34.695312 C 174.492188 34.710938 174.851562 34.367188 174.863281 33.933594 C 174.871094 33.808594 174.839844 33.691406 174.792969 33.582031 C 174.171875 32.21875 173.457031 30.886719 172.660156 29.613281 C 172.574219 29.476562 172.492188 29.351562 172.421875 29.242188 C 172.28125 29.015625 172.039062 28.878906 171.773438 28.878906 L 164.472656 28.785156 C 164.179688 28.78125 163.910156 28.941406 163.769531 29.191406 L 163.171875 30.285156 L 159.371094 31.679688 C 158.160156 32.121094 157.351562 33.277344 157.351562 34.570312 L 157.351562 39.445312 L 137.359375 38.121094 L 137.359375 33.175781 C 137.359375 32.714844 137.644531 32.304688 138.078125 32.148438 L 141.890625 30.746094 L 144.492188 32.898438 C 144.625 33.007812 144.792969 33.070312 144.964844 33.078125 L 152.078125 33.300781 C 152.511719 33.316406 152.875 32.972656 152.890625 32.539062 C 152.890625 32.417969 152.867188 32.292969 152.8125 32.183594 C 152.191406 30.816406 151.476562 29.492188 150.679688 28.21875 C 150.597656 28.082031 150.511719 27.960938 150.441406 27.847656 C 150.300781 27.625 150.058594 27.488281 149.792969 27.484375 L 142.492188 27.394531 C 142.199219 27.390625 141.929688 27.546875 141.792969 27.800781 L 141.191406 28.890625 L 137.394531 30.285156 C 136.179688 30.730469 135.371094 31.882812 135.371094 33.175781 L 135.371094 37.988281 L 115.378906 36.664062 L 115.378906 31.78125 C 115.378906 31.320312 115.667969 30.910156 116.097656 30.753906 L 119.910156 29.347656 L 122.511719 31.503906 C 122.644531 31.613281 122.8125 31.679688 122.988281 31.683594 L 130.097656 31.910156 C 130.53125 31.921875 130.894531 31.582031 130.910156 31.144531 C 130.910156 31.023438 130.886719 30.902344 130.832031 30.789062 C 130.210938 29.421875 129.496094 28.101562 128.699219 26.824219 C 128.617188 26.6875 128.53125 26.558594 128.460938 26.449219 C 128.320312 26.226562 128.074219 26.089844 127.8125 26.089844 L 120.511719 25.992188 C 120.222656 25.988281 119.953125 26.144531 119.8125 26.398438 L 119.210938 27.492188 L 115.414062 28.890625 C 114.199219 29.335938 113.394531 30.492188 113.390625 31.78125 L 113.390625 36.539062 L 93.398438 35.214844 L 93.398438 30.390625 C 93.398438 29.925781 93.6875 29.519531 94.117188 29.359375 L 97.929688 27.953125 L 100.53125 30.109375 C 100.664062 30.222656 100.832031 30.285156 101.007812 30.292969 L 108.117188 30.507812 C 108.550781 30.523438 108.914062 30.179688 108.925781 29.746094 C 108.929688 29.621094 108.902344 29.503906 108.851562 29.394531 C 108.230469 28.03125 107.519531 26.699219 106.71875 25.425781 C 106.632812 25.289062 106.554688 25.167969 106.484375 25.054688 C 106.339844 24.828125 106.097656 24.695312 105.832031 24.691406 L 98.53125 24.597656 C 98.242188 24.59375 97.972656 24.753906 97.832031 25.003906 L 97.230469 26.097656 L 93.433594 27.492188 C 92.21875 27.933594 91.410156 29.09375 91.414062 30.390625 L 91.414062 35.089844 L 71.417969 33.765625 L 71.417969 28.996094 C 71.417969 28.535156 71.707031 28.121094 72.140625 27.960938 L 75.949219 26.558594 L 78.550781 28.714844 C 78.6875 28.828125 78.851562 28.890625 79.027344 28.898438 L 86.140625 29.117188 C 86.574219 29.128906 86.933594 28.785156 86.945312 28.351562 C 86.949219 28.230469 86.925781 28.109375 86.875 28.003906 C 86.25 26.636719 85.539062 25.304688 84.742188 24.03125 C 84.65625 23.894531 84.574219 23.773438 84.503906 23.660156 C 84.359375 23.4375 84.117188 23.300781 83.851562 23.296875 Z M 61.914062 35.542969 L 178.28125 43.230469 L 178.28125 95.035156 L 61.914062 87.339844 Z M 61.914062 35.542969 " fill-opacity="1" fill-rule="nonzero"/></g></svg>