<svg xmlns="http://www.w3.org/2000/svg" xmlns:xlink="http://www.w3.org/1999/xlink" width="258" zoomAndPan="magnify" viewBox="0 0 193.5 181.5" height="242" preserveAspectRatio="xMidYMid meet" version="1.0"><defs><clipPath id="3d2e26a135"><path d="M 18.117188 63.148438 L 184.160156 63.148438 L 184.160156 181 L 18.117188 181 Z M 18.117188 63.148438 " clip-rule="nonzero"/></clipPath></defs><path fill="#000000" d="M 46.570312 103.992188 C 46.570312 104.890625 46.484375 105.78125 46.308594 106.664062 C 46.132812 107.546875 45.875 108.402344 45.53125 109.230469 C 45.191406 110.0625 44.769531 110.851562 44.273438 111.597656 C 43.777344 112.347656 43.210938 113.039062 42.578125 113.671875 C 41.945312 114.308594 41.257812 114.875 40.511719 115.375 C 39.769531 115.875 38.980469 116.296875 38.15625 116.640625 C 37.328125 116.984375 36.476562 117.246094 35.597656 117.417969 C 34.71875 117.59375 33.832031 117.683594 32.9375 117.683594 C 32.042969 117.683594 31.15625 117.59375 30.277344 117.417969 C 29.402344 117.246094 28.546875 116.984375 27.722656 116.640625 C 26.894531 116.296875 26.109375 115.875 25.363281 115.375 C 24.621094 114.875 23.933594 114.308594 23.300781 113.671875 C 22.664062 113.039062 22.101562 112.347656 21.605469 111.597656 C 21.105469 110.851562 20.6875 110.0625 20.34375 109.230469 C 20 108.402344 19.742188 107.546875 19.566406 106.664062 C 19.394531 105.78125 19.304688 104.890625 19.304688 103.992188 C 19.304688 103.09375 19.394531 102.203125 19.566406 101.324219 C 19.742188 100.441406 20 99.585938 20.34375 98.753906 C 20.6875 97.925781 21.105469 97.136719 21.605469 96.386719 C 22.101562 95.640625 22.664062 94.949219 23.300781 94.3125 C 23.933594 93.679688 24.621094 93.109375 25.363281 92.609375 C 26.109375 92.113281 26.894531 91.691406 27.722656 91.347656 C 28.546875 91 29.402344 90.742188 30.277344 90.566406 C 31.15625 90.390625 32.042969 90.304688 32.9375 90.304688 C 33.832031 90.304688 34.71875 90.390625 35.597656 90.566406 C 36.476562 90.742188 37.328125 91 38.15625 91.347656 C 38.980469 91.691406 39.769531 92.113281 40.511719 92.609375 C 41.257812 93.109375 41.945312 93.679688 42.578125 94.3125 C 43.210938 94.949219 43.777344 95.640625 44.273438 96.386719 C 44.769531 97.136719 45.191406 97.925781 45.53125 98.753906 C 45.875 99.585938 46.132812 100.441406 46.308594 101.324219 C 46.484375 102.203125 46.570312 103.09375 46.570312 103.992188 Z M 46.570312 103.992188 " fill-opacity="1" fill-rule="nonzero"/><g clip-path="url(#3d2e26a135)"><path fill="#000000" d="M 182.898438 178.839844 L 178.070312 178.839844 L 178.070312 175.847656 C 178.070312 173.730469 176.355469 172.011719 174.25 172.011719 L 174.1875 172.011719 L 174.1875 88.433594 C 174.1875 86.449219 172.582031 84.839844 170.609375 84.839844 L 169.835938 84.839844 L 169.835938 77.574219 L 182.898438 77.574219 C 183.273438 77.574219 183.625 77.394531 183.851562 77.097656 C 184.082031 76.800781 184.148438 76.40625 184.046875 76.046875 C 181.894531 68.523438 174.945312 63.265625 167.148438 63.265625 L 62.324219 63.265625 C 54.527344 63.265625 47.578125 68.519531 45.425781 76.046875 C 45.324219 76.410156 45.394531 76.796875 45.621094 77.097656 C 45.84375 77.398438 46.199219 77.574219 46.574219 77.574219 L 59.636719 77.574219 L 59.636719 84.839844 L 58.863281 84.839844 C 56.890625 84.839844 55.285156 86.449219 55.285156 88.433594 L 55.285156 172.007812 L 55.21875 172.007812 C 53.113281 172.007812 51.402344 173.730469 51.402344 175.84375 L 51.402344 178.835938 L 37.203125 178.835938 L 37.203125 121.429688 C 37.203125 120.769531 36.667969 120.234375 36.007812 120.234375 C 35.351562 120.234375 34.816406 120.769531 34.816406 121.429688 L 34.816406 178.839844 L 31.0625 178.839844 L 31.0625 121.429688 C 31.0625 120.769531 30.527344 120.234375 29.867188 120.234375 C 29.210938 120.234375 28.675781 120.769531 28.675781 121.429688 L 28.675781 178.839844 L 19.308594 178.839844 C 18.652344 178.839844 18.117188 179.378906 18.117188 180.039062 C 18.117188 180.699219 18.652344 181.238281 19.308594 181.238281 L 182.898438 181.238281 C 183.554688 181.238281 184.089844 180.699219 184.089844 180.039062 C 184.089844 179.378906 183.554688 178.839844 182.898438 178.839844 Z M 48.246094 75.175781 C 50.550781 69.503906 56.128906 65.664062 62.324219 65.664062 L 75.117188 65.664062 C 71.542969 67.273438 68.734375 70.398438 67.597656 74.363281 C 67.519531 74.644531 67.519531 74.921875 67.585938 75.175781 Z M 56.144531 178.796875 C 56.144531 178.8125 56.148438 178.828125 56.148438 178.839844 L 53.789062 178.839844 L 53.789062 175.847656 C 53.789062 175.050781 54.433594 174.410156 55.21875 174.410156 L 58.269531 174.410156 C 56.980469 175.429688 56.144531 177.011719 56.144531 178.796875 Z M 63.988281 172.007812 L 57.671875 172.007812 L 57.671875 88.433594 C 57.671875 87.769531 58.207031 87.234375 58.863281 87.234375 L 62.796875 87.234375 C 63.453125 87.234375 63.988281 87.769531 63.988281 88.433594 Z M 62.796875 84.839844 L 62.023438 84.839844 L 62.023438 77.574219 L 167.445312 77.574219 L 167.445312 84.839844 L 166.671875 84.839844 C 165.117188 84.839844 163.796875 85.839844 163.300781 87.234375 L 66.167969 87.234375 C 65.671875 85.839844 64.351562 84.839844 62.796875 84.839844 Z M 146.914062 178.839844 L 82.558594 178.839844 L 82.558594 171.015625 L 146.914062 171.015625 Z M 73.570312 158.941406 C 73.472656 158.941406 73.398438 158.867188 73.398438 158.773438 L 73.398438 155.363281 C 73.398438 155.265625 73.472656 155.191406 73.570312 155.191406 L 155.902344 155.191406 C 156 155.191406 156.074219 155.265625 156.074219 155.363281 L 156.074219 158.773438 C 156.074219 158.867188 156 158.941406 155.902344 158.941406 Z M 146.914062 168.617188 L 82.558594 168.617188 L 82.558594 161.339844 L 146.914062 161.339844 Z M 163.953125 178.796875 C 163.953125 178.8125 163.957031 178.828125 163.957031 178.839844 L 161.597656 178.839844 L 161.597656 175.847656 C 161.597656 175.050781 162.242188 174.410156 163.027344 174.410156 L 166.078125 174.410156 C 164.789062 175.429688 163.953125 177.011719 163.953125 178.796875 Z M 171.800781 172.007812 L 163.035156 172.007812 C 160.929688 172.007812 159.21875 173.730469 159.21875 175.84375 L 159.21875 178.835938 L 149.304688 178.835938 L 149.304688 161.335938 L 155.90625 161.335938 C 157.316406 161.335938 158.460938 160.183594 158.460938 158.769531 L 158.460938 155.359375 C 158.460938 153.941406 157.316406 152.792969 155.90625 152.792969 L 73.570312 152.792969 C 72.160156 152.792969 71.015625 153.941406 71.015625 155.359375 L 71.015625 158.769531 C 71.015625 160.183594 72.160156 161.335938 73.570312 161.335938 L 80.171875 161.335938 L 80.171875 178.835938 L 70.257812 178.835938 L 70.257812 175.84375 C 70.257812 173.726562 68.542969 172.007812 66.441406 172.007812 L 66.375 172.007812 L 66.375 89.628906 L 163.097656 89.628906 L 163.097656 144.742188 L 72.207031 144.742188 C 71.546875 144.742188 71.015625 145.28125 71.015625 145.941406 C 71.015625 146.601562 71.546875 147.140625 72.207031 147.140625 L 163.097656 147.140625 L 163.097656 167.507812 C 163.097656 168.167969 163.632812 168.707031 164.289062 168.707031 C 164.949219 168.707031 165.484375 168.167969 165.484375 167.507812 L 165.484375 88.433594 C 165.484375 87.769531 166.019531 87.234375 166.675781 87.234375 L 170.609375 87.234375 C 171.265625 87.234375 171.800781 87.769531 171.800781 88.433594 Z M 171.800781 172.007812 " fill-opacity="1" fill-rule="nonzero"/></g></svg>