<svg xmlns="http://www.w3.org/2000/svg" xmlns:xlink="http://www.w3.org/1999/xlink" width="258" zoomAndPan="magnify" viewBox="0 0 193.5 181.5" height="242" preserveAspectRatio="xMidYMid meet" version="1.0"><defs><clipPath id="f7f8e054be"><path d="M 43.671875 44.21875 L 190.265625 44.21875 L 190.265625 181 L 43.671875 181 Z M 43.671875 44.21875 " clip-rule="nonzero"/></clipPath></defs><path fill="#f1f1f1" d="M 66.132812 68.796875 L 167.816406 68.796875 L 167.816406 146.050781 L 66.132812 146.050781 Z M 66.132812 68.796875 " fill-opacity="1" fill-rule="evenodd"/><path fill="#dbdbdb" d="M 188.1875 61.335938 L 167.816406 61.335938 L 167.816406 146.050781 L 188.1875 178.945312 Z M 188.1875 61.335938 " fill-opacity="1" fill-rule="evenodd"/><path fill="#f1f1f1" d="M 45.75 61.335938 L 188.1875 61.335938 L 160.949219 46.363281 L 72.988281 46.363281 Z M 45.75 61.335938 " fill-opacity="1" fill-rule="evenodd"/><path fill="#132536" d="M 79.371094 146.050781 L 154.574219 146.050781 L 154.574219 178.945312 L 79.371094 178.945312 Z M 79.371094 146.050781 " fill-opacity="1" fill-rule="evenodd"/><path fill="#fbbd80" d="M 136.050781 104.828125 C 141.511719 104.828125 145.945312 109.253906 145.945312 114.710938 C 145.945312 120.179688 141.511719 124.601562 136.050781 124.601562 C 130.59375 124.601562 126.160156 120.179688 126.160156 114.710938 C 126.160156 109.253906 130.59375 104.828125 136.050781 104.828125 Z M 136.050781 104.828125 " fill-opacity="1" fill-rule="evenodd"/><path fill="#ffd400" d="M 118.394531 142.257812 L 153.707031 142.257812 C 153.707031 132.542969 145.757812 124.601562 136.050781 124.601562 C 126.34375 124.601562 118.394531 132.542969 118.394531 142.257812 Z M 118.394531 142.257812 " fill-opacity="1" fill-rule="evenodd"/><path fill="#fbbd80" d="M 100.746094 104.828125 C 106.207031 104.828125 110.628906 109.253906 110.628906 114.710938 C 110.628906 120.179688 106.207031 124.601562 100.746094 124.601562 C 95.277344 124.601562 90.855469 120.179688 90.855469 114.710938 C 90.855469 109.253906 95.277344 104.828125 100.746094 104.828125 Z M 100.746094 104.828125 " fill-opacity="1" fill-rule="evenodd"/><path fill="#0593fc" d="M 83.089844 142.257812 L 118.394531 142.257812 C 118.394531 132.542969 110.453125 124.601562 100.746094 124.601562 C 91.03125 124.601562 83.089844 132.542969 83.089844 142.257812 Z M 83.089844 142.257812 " fill-opacity="1" fill-rule="evenodd"/><path fill="#203447" d="M 154.691406 140.054688 L 159.519531 152.046875 L 74.425781 152.046875 L 79.246094 140.054688 Z M 154.691406 140.054688 " fill-opacity="1" fill-rule="evenodd"/><path fill="#dbdbdb" d="M 45.75 61.335938 L 66.132812 61.335938 L 66.132812 146.050781 L 45.75 178.945312 Z M 45.75 61.335938 " fill-opacity="1" fill-rule="evenodd"/><path fill="#e6e6e6" d="M 45.75 61.335938 L 188.1875 61.335938 L 188.1875 83.9375 L 45.75 83.9375 Z M 45.75 61.335938 " fill-opacity="1" fill-rule="evenodd"/><g clip-path="url(#f7f8e054be)"><path fill="#000000" d="M 190.261719 61.339844 L 190.261719 61.335938 C 190.261719 61.328125 190.261719 61.324219 190.261719 61.316406 C 190.261719 61.257812 190.257812 61.195312 190.25 61.136719 C 190.25 61.105469 190.242188 61.074219 190.238281 61.042969 C 190.234375 61.007812 190.230469 60.972656 190.222656 60.9375 C 190.214844 60.898438 190.203125 60.859375 190.195312 60.820312 C 190.1875 60.796875 190.183594 60.769531 190.175781 60.746094 C 190.164062 60.703125 190.148438 60.664062 190.132812 60.625 C 190.125 60.601562 190.117188 60.578125 190.109375 60.554688 C 190.09375 60.519531 190.078125 60.484375 190.058594 60.449219 C 190.046875 60.421875 190.035156 60.394531 190.023438 60.371094 C 190.007812 60.339844 189.988281 60.3125 189.972656 60.28125 C 189.953125 60.253906 189.9375 60.222656 189.917969 60.195312 C 189.902344 60.171875 189.886719 60.148438 189.871094 60.125 C 189.847656 60.09375 189.824219 60.0625 189.796875 60.03125 C 189.78125 60.011719 189.765625 59.992188 189.75 59.976562 C 189.722656 59.941406 189.695312 59.910156 189.664062 59.878906 C 189.644531 59.863281 189.628906 59.84375 189.609375 59.828125 C 189.578125 59.800781 189.550781 59.773438 189.515625 59.746094 C 189.492188 59.722656 189.464844 59.703125 189.4375 59.683594 C 189.410156 59.664062 189.386719 59.644531 189.359375 59.625 C 189.308594 59.59375 189.261719 59.5625 189.210938 59.535156 C 189.203125 59.527344 189.195312 59.523438 189.1875 59.519531 L 189.183594 59.515625 C 189.179688 59.515625 189.175781 59.511719 189.171875 59.511719 L 161.949219 44.546875 C 161.644531 44.378906 161.300781 44.292969 160.949219 44.292969 L 72.988281 44.292969 C 72.636719 44.292969 72.292969 44.378906 71.988281 44.546875 L 44.765625 59.511719 C 44.761719 59.511719 44.757812 59.515625 44.753906 59.515625 L 44.75 59.519531 C 44.742188 59.523438 44.734375 59.527344 44.726562 59.535156 C 44.675781 59.5625 44.628906 59.59375 44.578125 59.625 C 44.550781 59.644531 44.527344 59.664062 44.5 59.683594 C 44.472656 59.703125 44.445312 59.722656 44.421875 59.746094 C 44.386719 59.773438 44.359375 59.800781 44.328125 59.828125 C 44.308594 59.847656 44.292969 59.863281 44.273438 59.878906 C 44.242188 59.910156 44.214844 59.945312 44.1875 59.976562 C 44.171875 59.996094 44.15625 60.011719 44.140625 60.027344 C 44.113281 60.0625 44.089844 60.09375 44.066406 60.128906 C 44.050781 60.148438 44.035156 60.171875 44.019531 60.195312 C 44 60.222656 43.984375 60.253906 43.964844 60.285156 C 43.949219 60.3125 43.929688 60.339844 43.914062 60.371094 C 43.902344 60.394531 43.890625 60.421875 43.878906 60.449219 C 43.859375 60.484375 43.84375 60.519531 43.828125 60.554688 C 43.820312 60.578125 43.8125 60.601562 43.800781 60.628906 C 43.789062 60.667969 43.773438 60.703125 43.761719 60.742188 C 43.753906 60.769531 43.75 60.796875 43.742188 60.824219 C 43.734375 60.863281 43.722656 60.898438 43.714844 60.9375 C 43.707031 60.972656 43.703125 61.011719 43.699219 61.046875 C 43.695312 61.078125 43.6875 61.105469 43.6875 61.132812 C 43.679688 61.195312 43.675781 61.257812 43.675781 61.320312 C 43.675781 61.324219 43.675781 61.332031 43.675781 61.335938 L 43.675781 61.339844 C 43.675781 61.34375 43.675781 61.351562 43.675781 61.355469 L 43.675781 178.945312 C 43.675781 179.871094 44.289062 180.6875 45.183594 180.941406 C 45.371094 180.992188 45.5625 181.019531 45.75 181.019531 C 46.453125 181.019531 47.128906 180.660156 47.511719 180.039062 L 67.285156 148.125 L 73.769531 148.125 L 72.5 151.273438 C 72.246094 151.914062 72.320312 152.640625 72.707031 153.210938 C 73.09375 153.78125 73.738281 154.121094 74.425781 154.121094 L 77.296875 154.121094 L 77.296875 178.945312 C 77.296875 180.089844 78.226562 181.019531 79.371094 181.019531 L 154.574219 181.019531 C 155.71875 181.019531 156.648438 180.089844 156.648438 178.945312 L 156.648438 154.121094 L 159.519531 154.121094 C 160.210938 154.121094 160.851562 153.78125 161.238281 153.207031 C 161.625 152.636719 161.703125 151.914062 161.445312 151.273438 L 160.175781 148.125 L 166.660156 148.125 L 186.425781 180.039062 C 186.808594 180.660156 187.484375 181.019531 188.1875 181.019531 C 188.375 181.019531 188.566406 180.992188 188.757812 180.941406 C 189.648438 180.6875 190.261719 179.871094 190.261719 178.945312 L 190.261719 61.355469 C 190.261719 61.351562 190.261719 61.34375 190.261719 61.339844 Z M 47.824219 81.855469 L 47.824219 63.410156 L 186.113281 63.410156 L 186.113281 81.855469 Z M 73.519531 48.4375 L 160.417969 48.4375 L 180.113281 59.261719 L 53.824219 59.261719 Z M 47.824219 86 L 64.058594 86 L 64.058594 145.460938 L 47.824219 171.664062 Z M 92.925781 114.710938 C 92.925781 110.402344 96.433594 106.894531 100.746094 106.894531 C 105.054688 106.894531 108.558594 110.402344 108.558594 114.710938 C 108.558594 119.023438 105.054688 122.53125 100.746094 122.53125 C 96.433594 122.53125 92.925781 119.023438 92.925781 114.710938 Z M 128.230469 114.710938 C 128.230469 110.402344 131.738281 106.894531 136.050781 106.894531 C 140.363281 106.894531 143.871094 110.402344 143.871094 114.710938 C 143.871094 119.023438 140.363281 122.53125 136.050781 122.53125 C 131.738281 122.53125 128.230469 119.023438 128.230469 114.710938 Z M 118.25 142.128906 C 118.253906 142.128906 118.253906 142.128906 118.257812 142.128906 C 118.257812 142.128906 118.261719 142.128906 118.261719 142.128906 L 153.292969 142.128906 L 155.195312 146.851562 C 155.195312 146.855469 155.195312 146.859375 155.195312 146.859375 L 156.449219 149.976562 L 77.492188 149.976562 L 80.648438 142.128906 Z M 85.761719 137.980469 C 87.644531 131.394531 93.714844 126.675781 100.746094 126.675781 C 107.773438 126.675781 113.839844 131.398438 115.722656 137.980469 Z M 121.074219 137.980469 C 122.949219 131.398438 129.015625 126.675781 136.050781 126.675781 C 143.078125 126.675781 149.144531 131.398438 151.027344 137.980469 Z M 152.5 176.871094 L 81.445312 176.871094 L 81.445312 154.121094 L 152.5 154.121094 Z M 156.617188 139.28125 C 156.382812 138.699219 155.902344 138.269531 155.328125 138.082031 C 153.933594 131.648438 149.429688 126.453125 143.554688 124.023438 C 146.273438 121.828125 148.015625 118.46875 148.015625 114.710938 C 148.015625 108.113281 142.648438 102.746094 136.050781 102.746094 C 129.453125 102.746094 124.085938 108.113281 124.085938 114.710938 C 124.085938 118.46875 125.828125 121.828125 128.546875 124.019531 C 124.152344 125.835938 120.527344 129.199219 118.398438 133.46875 C 116.261719 129.199219 112.636719 125.835938 108.246094 124.019531 C 110.960938 121.828125 112.703125 118.46875 112.703125 114.710938 C 112.703125 108.113281 107.339844 102.746094 100.746094 102.746094 C 94.148438 102.746094 88.78125 108.113281 88.78125 114.710938 C 88.78125 118.46875 90.523438 121.828125 93.242188 124.023438 C 87.394531 126.4375 82.902344 131.59375 81.480469 137.980469 L 79.246094 137.980469 C 78.398438 137.980469 77.636719 138.496094 77.320312 139.28125 L 75.433594 143.976562 L 68.203125 143.976562 L 68.203125 86 L 165.742188 86 L 165.742188 143.976562 L 158.507812 143.976562 Z M 169.886719 145.460938 L 169.886719 86 L 186.113281 86 L 186.113281 171.660156 Z M 169.886719 145.460938 " fill-opacity="1" fill-rule="nonzero"/></g></svg>