<svg xmlns="http://www.w3.org/2000/svg" xmlns:xlink="http://www.w3.org/1999/xlink" width="258" zoomAndPan="magnify" viewBox="0 0 193.5 181.5" height="242" preserveAspectRatio="xMidYMid meet" version="1.0"><defs><clipPath id="186467715f"><path d="M 32.34375 46.191406 L 187.167969 46.191406 L 187.167969 180.820312 L 32.34375 180.820312 Z M 32.34375 46.191406 " clip-rule="nonzero"/></clipPath></defs><g clip-path="url(#186467715f)"><path fill="#000000" d="M 62.433594 66.734375 C 62.433594 63.160156 65.347656 60.25 68.929688 60.25 C 72.515625 60.25 75.429688 63.160156 75.429688 66.734375 C 75.429688 70.3125 72.515625 73.21875 68.929688 73.21875 C 65.347656 73.21875 62.433594 70.3125 62.433594 66.734375 Z M 77.277344 114.269531 L 60.546875 114.269531 C 59.203125 114.269531 58.113281 115.359375 58.113281 116.699219 C 58.113281 118.042969 59.203125 119.132812 60.546875 119.132812 L 77.277344 119.132812 C 78.625 119.132812 79.714844 118.042969 79.714844 116.699219 C 79.714844 115.359375 78.625 114.269531 77.277344 114.269531 Z M 187.183594 178.371094 C 187.183594 179.714844 186.089844 180.804688 184.746094 180.804688 L 34.785156 180.804688 C 33.441406 180.804688 32.351562 179.714844 32.351562 178.371094 C 32.351562 177.03125 33.441406 175.941406 34.785156 175.941406 L 54.128906 175.941406 L 55.574219 170.894531 C 56.1875 168.699219 58.234375 167.152344 60.546875 167.152344 L 62.007812 167.152344 L 62.007812 133.628906 L 42.289062 133.628906 C 39.066406 133.628906 36.445312 131.007812 36.445312 127.789062 L 36.445312 52.046875 C 36.445312 48.828125 39.066406 46.210938 42.289062 46.210938 L 95.570312 46.210938 C 98.792969 46.210938 101.417969 48.828125 101.417969 52.046875 L 101.417969 127.789062 C 101.417969 131.007812 98.792969 133.628906 95.570312 133.628906 L 75.816406 133.628906 L 75.816406 167.152344 L 77.183594 167.152344 C 79.5 167.152344 81.546875 168.699219 82.160156 170.914062 L 83.648438 175.941406 L 110.546875 175.941406 L 110.546875 169.132812 L 105.445312 169.132812 C 103.832031 169.132812 102.519531 167.820312 102.519531 166.214844 L 102.519531 160.667969 C 102.519531 159.058594 103.832031 157.75 105.445312 157.75 L 110.546875 157.75 L 110.546875 152.628906 L 105.445312 152.628906 C 103.832031 152.628906 102.519531 151.320312 102.519531 149.710938 L 102.519531 142.675781 C 102.519531 141.0625 103.832031 139.753906 105.445312 139.753906 L 179.707031 139.753906 C 181.320312 139.753906 182.632812 141.0625 182.632812 142.675781 L 182.632812 149.710938 C 182.632812 151.320312 181.320312 152.628906 179.707031 152.628906 L 176.070312 152.628906 L 176.070312 157.75 L 179.707031 157.75 C 181.320312 157.75 182.632812 159.058594 182.632812 160.667969 L 182.632812 166.214844 C 182.632812 167.820312 181.320312 169.132812 179.707031 169.132812 L 176.070312 169.132812 L 176.070312 175.941406 L 184.746094 175.941406 C 186.089844 175.941406 187.183594 177.03125 187.183594 178.371094 Z M 48.625 57.914062 L 48.625 121.925781 L 89.203125 121.921875 L 89.203125 57.914062 Z M 66.882812 133.628906 L 66.882812 166.050781 L 70.945312 166.050781 L 70.945312 133.628906 Z M 115.417969 157.75 L 171.199219 157.75 L 171.199219 152.628906 L 115.417969 152.628906 Z M 171.199219 169.132812 L 115.417969 169.132812 L 115.417969 175.941406 L 171.199219 175.941406 Z M 53.953125 110.25 L 83.875 110.25 C 85.21875 110.25 86.308594 109.160156 86.308594 107.816406 C 86.308594 106.472656 85.21875 105.386719 83.875 105.386719 L 53.953125 105.386719 C 52.609375 105.386719 51.515625 106.472656 51.515625 107.816406 C 51.515625 109.160156 52.609375 110.25 53.953125 110.25 Z M 68.117188 101.851562 L 69.710938 101.851562 C 73.003906 101.851562 75.6875 99.175781 75.6875 95.882812 L 75.6875 80.546875 C 75.6875 77.257812 73.003906 74.582031 69.710938 74.582031 L 68.117188 74.582031 C 64.820312 74.582031 62.140625 77.257812 62.140625 80.546875 L 62.140625 95.882812 C 62.140625 99.175781 64.820312 101.851562 68.117188 101.851562 Z M 68.117188 101.851562 " fill-opacity="1" fill-rule="nonzero"/></g></svg>