<svg xmlns="http://www.w3.org/2000/svg" xmlns:xlink="http://www.w3.org/1999/xlink" width="258" zoomAndPan="magnify" viewBox="0 0 193.5 181.5" height="242" preserveAspectRatio="xMidYMid meet" version="1.0"><defs><clipPath id="79653feaef"><path d="M 29 25.015625 L 188 25.015625 L 188 181 L 29 181 Z M 29 25.015625 " clip-rule="nonzero"/></clipPath></defs><g clip-path="url(#79653feaef)"><path fill="#000000" d="M 186.457031 107.992188 L 182.328125 99.53125 C 180.695312 96.179688 179.355469 90.386719 179.355469 86.664062 L 179.355469 72.257812 C 179.355469 68.527344 179.355469 62.429688 179.355469 58.699219 L 179.355469 43.640625 C 179.355469 39.910156 179.355469 34.1875 179.355469 30.921875 C 179.355469 27.652344 176.3125 24.980469 172.585938 24.980469 L 44.148438 24.980469 C 40.429688 24.980469 37.382812 27.652344 37.382812 30.921875 C 37.382812 34.1875 37.382812 39.910156 37.382812 43.640625 L 37.382812 58.699219 C 37.382812 62.429688 37.382812 68.527344 37.382812 72.257812 L 37.382812 86.382812 C 37.382812 90.113281 36.058594 95.910156 34.441406 99.269531 L 30.25 107.972656 C 28.632812 111.332031 30.355469 114.082031 34.078125 114.082031 L 182.65625 114.082031 C 186.378906 114.082031 188.089844 111.34375 186.457031 107.992188 Z M 166.144531 93.019531 L 50.675781 93.019531 C 50.675781 93.019531 51.722656 69.488281 46.613281 58.507812 C 46.613281 58.507812 66.789062 40.949219 71.769531 27.011719 C 71.769531 27.011719 91.550781 33.40625 107.929688 31.839844 L 108.886719 31.839844 C 125.265625 33.40625 145.054688 27.011719 145.054688 27.011719 C 150.027344 40.949219 170.207031 58.507812 170.207031 58.507812 C 165.097656 69.488281 166.144531 93.019531 166.144531 93.019531 Z M 44.339844 131.71875 L 44.339844 130.847656 C 44.339844 126.738281 46.726562 123.378906 49.640625 123.378906 L 55.71875 123.378906 C 58.632812 123.378906 61.019531 126.738281 61.019531 130.847656 L 61.019531 131.71875 L 60.820312 131.71875 C 60.203125 128.566406 58.144531 126.234375 55.714844 126.234375 L 49.640625 126.234375 C 47.214844 126.234375 45.15625 128.570312 44.535156 131.71875 Z M 62.902344 131.71875 L 62.902344 130.847656 C 62.902344 126.738281 65.285156 123.378906 68.203125 123.378906 L 74.277344 123.378906 C 77.195312 123.378906 79.582031 126.738281 79.582031 130.847656 L 79.582031 131.71875 L 79.382812 131.71875 C 78.765625 128.566406 76.707031 126.234375 74.277344 126.234375 L 68.203125 126.234375 C 65.773438 126.234375 63.71875 128.570312 63.097656 131.71875 Z M 81.460938 131.71875 L 81.460938 130.847656 C 81.460938 126.738281 83.84375 123.378906 86.761719 123.378906 L 92.839844 123.378906 C 95.753906 123.378906 98.136719 126.738281 98.136719 130.847656 L 98.136719 131.71875 L 97.941406 131.71875 C 97.320312 128.566406 95.265625 126.234375 92.835938 126.234375 L 86.761719 126.234375 C 84.332031 126.234375 82.277344 128.570312 81.65625 131.71875 Z M 100.019531 131.71875 L 100.019531 130.847656 C 100.019531 126.738281 102.402344 123.378906 105.320312 123.378906 L 111.394531 123.378906 C 114.308594 123.378906 116.695312 126.738281 116.695312 130.847656 L 116.695312 131.71875 L 116.5 131.71875 C 115.878906 128.566406 113.824219 126.234375 111.390625 126.234375 L 105.316406 126.234375 C 102.886719 126.234375 100.832031 128.570312 100.210938 131.71875 Z M 118.582031 131.71875 L 118.582031 130.847656 C 118.582031 126.738281 120.960938 123.378906 123.878906 123.378906 L 129.957031 123.378906 C 132.871094 123.378906 135.253906 126.738281 135.253906 130.847656 L 135.253906 131.71875 L 135.0625 131.71875 C 134.4375 128.566406 132.382812 126.234375 129.953125 126.234375 L 123.875 126.234375 C 121.449219 126.234375 119.390625 128.570312 118.769531 131.71875 Z M 137.136719 131.71875 L 137.136719 130.847656 C 137.136719 126.738281 139.519531 123.378906 142.433594 123.378906 L 148.511719 123.378906 C 151.425781 123.378906 153.808594 126.738281 153.808594 130.847656 L 153.808594 131.71875 L 153.617188 131.71875 C 153 128.566406 150.9375 126.234375 148.507812 126.234375 L 142.433594 126.234375 C 140.003906 126.234375 137.949219 128.570312 137.328125 131.71875 Z M 155.695312 131.71875 L 155.695312 130.847656 C 155.695312 126.738281 158.078125 123.378906 160.996094 123.378906 L 167.074219 123.378906 C 169.988281 123.378906 172.375 126.738281 172.375 130.847656 L 172.375 131.71875 L 172.175781 131.71875 C 171.554688 128.566406 169.5 126.234375 167.070312 126.234375 L 160.996094 126.234375 C 158.566406 126.234375 156.511719 128.570312 155.886719 131.71875 Z M 39.53125 148.257812 L 39.53125 147.316406 C 39.53125 142.902344 42.097656 139.289062 45.234375 139.289062 L 51.765625 139.289062 C 54.898438 139.289062 57.464844 142.902344 57.464844 147.316406 L 57.464844 148.257812 L 57.253906 148.257812 C 56.589844 144.871094 54.378906 142.359375 51.765625 142.359375 L 45.234375 142.359375 C 42.621094 142.359375 40.410156 144.871094 39.746094 148.257812 Z M 59.484375 148.257812 L 59.484375 147.316406 C 59.484375 142.902344 62.050781 139.289062 65.183594 139.289062 L 71.714844 139.289062 C 74.851562 139.289062 77.417969 142.902344 77.417969 147.316406 L 77.417969 148.257812 L 77.207031 148.257812 C 76.542969 144.871094 74.328125 142.359375 71.71875 142.359375 L 65.183594 142.359375 C 62.574219 142.359375 60.363281 144.871094 59.695312 148.257812 Z M 79.4375 148.257812 L 79.4375 147.316406 C 79.4375 142.902344 82.003906 139.289062 85.140625 139.289062 L 91.671875 139.289062 C 94.808594 139.289062 97.371094 142.902344 97.371094 147.316406 L 97.371094 148.257812 L 97.164062 148.257812 C 96.496094 144.871094 94.285156 142.359375 91.671875 142.359375 L 85.140625 142.359375 C 82.53125 142.359375 80.320312 144.871094 79.652344 148.257812 Z M 99.390625 148.257812 L 99.390625 147.316406 C 99.390625 142.902344 101.957031 139.289062 105.09375 139.289062 L 111.625 139.289062 C 114.761719 139.289062 117.324219 142.902344 117.324219 147.316406 L 117.324219 148.257812 L 117.113281 148.257812 C 116.449219 144.871094 114.238281 142.359375 111.625 142.359375 L 105.09375 142.359375 C 102.484375 142.359375 100.273438 144.871094 99.605469 148.257812 Z M 119.34375 148.257812 L 119.34375 147.316406 C 119.34375 142.902344 121.914062 139.289062 125.046875 139.289062 L 131.578125 139.289062 C 134.710938 139.289062 137.28125 142.902344 137.28125 147.316406 L 137.28125 148.257812 L 137.066406 148.257812 C 136.398438 144.871094 134.1875 142.359375 131.578125 142.359375 L 125.046875 142.359375 C 122.4375 142.359375 120.226562 144.871094 119.558594 148.257812 Z M 139.300781 148.257812 L 139.300781 147.316406 C 139.300781 142.902344 141.867188 139.289062 145 139.289062 L 151.535156 139.289062 C 154.667969 139.289062 157.234375 142.902344 157.234375 147.316406 L 157.234375 148.257812 L 157.023438 148.257812 C 156.355469 144.871094 154.144531 142.359375 151.535156 142.359375 L 145.003906 142.359375 C 142.394531 142.359375 140.179688 144.871094 139.515625 148.257812 Z M 159.253906 148.257812 L 159.253906 147.316406 C 159.253906 142.902344 161.816406 139.289062 164.953125 139.289062 L 171.484375 139.289062 C 174.621094 139.289062 177.183594 142.902344 177.183594 147.316406 L 177.183594 148.257812 L 176.976562 148.257812 C 176.308594 144.871094 174.101562 142.359375 171.488281 142.359375 L 164.957031 142.359375 C 162.34375 142.359375 160.136719 144.871094 159.46875 148.257812 Z M 34.71875 164.796875 L 34.71875 163.785156 C 34.71875 159.0625 37.464844 155.199219 40.816406 155.199219 L 47.808594 155.199219 C 51.160156 155.199219 53.90625 159.0625 53.90625 163.785156 L 53.90625 164.796875 L 53.679688 164.796875 C 52.96875 161.171875 50.601562 158.488281 47.808594 158.488281 L 40.820312 158.488281 C 38.027344 158.488281 35.660156 161.171875 34.949219 164.796875 Z M 56.070312 164.796875 L 56.070312 163.785156 C 56.070312 159.0625 58.8125 155.199219 62.167969 155.199219 L 69.15625 155.199219 C 72.511719 155.199219 75.253906 159.0625 75.253906 163.785156 L 75.253906 164.796875 L 75.027344 164.796875 C 74.316406 161.171875 71.953125 158.488281 69.15625 158.488281 L 62.167969 158.488281 C 59.375 158.488281 57.011719 161.171875 56.296875 164.796875 Z M 77.417969 164.796875 L 77.417969 163.785156 C 77.417969 159.0625 80.164062 155.199219 83.515625 155.199219 L 90.503906 155.199219 C 93.859375 155.199219 96.605469 159.0625 96.605469 163.785156 L 96.605469 164.796875 L 96.378906 164.796875 C 95.664062 161.171875 93.300781 158.488281 90.507812 158.488281 L 83.519531 158.488281 C 80.726562 158.488281 78.359375 161.171875 77.648438 164.796875 Z M 98.765625 164.796875 L 98.765625 163.785156 C 98.765625 159.0625 101.511719 155.199219 104.863281 155.199219 L 111.855469 155.199219 C 115.207031 155.199219 117.953125 159.0625 117.953125 163.785156 L 117.953125 164.796875 L 117.726562 164.796875 C 117.011719 161.171875 114.648438 158.488281 111.855469 158.488281 L 104.863281 158.488281 C 102.070312 158.488281 99.703125 161.171875 98.988281 164.796875 Z M 120.113281 164.796875 L 120.113281 163.785156 C 120.113281 159.0625 122.859375 155.199219 126.210938 155.199219 L 133.199219 155.199219 C 136.554688 155.199219 139.300781 159.0625 139.300781 163.785156 L 139.300781 164.796875 L 139.078125 164.796875 C 138.363281 161.171875 135.996094 158.488281 133.199219 158.488281 L 126.210938 158.488281 C 123.417969 158.488281 121.054688 161.171875 120.339844 164.796875 Z M 141.464844 164.796875 L 141.464844 163.785156 C 141.464844 159.0625 144.207031 155.199219 147.5625 155.199219 L 154.554688 155.199219 C 157.90625 155.199219 160.648438 159.0625 160.648438 163.785156 L 160.648438 164.796875 L 160.421875 164.796875 C 159.710938 161.171875 157.347656 158.488281 154.550781 158.488281 L 147.566406 158.488281 C 144.765625 158.488281 142.40625 161.171875 141.691406 164.796875 Z M 162.8125 164.796875 L 162.8125 163.785156 C 162.8125 159.0625 165.554688 155.199219 168.90625 155.199219 L 175.902344 155.199219 C 179.253906 155.199219 181.996094 159.0625 181.996094 163.785156 L 181.996094 164.796875 L 181.773438 164.796875 C 181.058594 161.171875 178.695312 158.488281 175.902344 158.488281 L 168.910156 158.488281 C 166.121094 158.488281 163.753906 161.171875 163.039062 164.796875 Z M 29.308594 181.375 L 29.308594 180.285156 C 29.308594 175.222656 32.253906 171.070312 35.855469 171.070312 L 43.359375 171.070312 C 46.957031 171.070312 49.902344 175.222656 49.902344 180.285156 L 49.902344 181.375 L 49.660156 181.375 C 48.894531 177.480469 46.355469 174.597656 43.359375 174.597656 L 35.855469 174.597656 C 32.855469 174.597656 30.316406 177.480469 29.550781 181.375 Z M 52.226562 181.375 L 52.226562 180.285156 C 52.226562 175.222656 55.171875 171.070312 58.773438 171.070312 L 66.277344 171.070312 C 69.875 171.070312 72.820312 175.222656 72.820312 180.285156 L 72.820312 181.375 L 72.578125 181.375 C 71.8125 177.480469 69.273438 174.597656 66.277344 174.597656 L 58.773438 174.597656 C 55.773438 174.597656 53.234375 177.480469 52.46875 181.375 Z M 75.144531 181.375 L 75.144531 180.285156 C 75.144531 175.222656 78.089844 171.070312 81.6875 171.070312 L 89.191406 171.070312 C 92.792969 171.070312 95.738281 175.222656 95.738281 180.285156 L 95.738281 181.375 L 95.496094 181.375 C 94.730469 177.480469 92.191406 174.597656 89.191406 174.597656 L 81.6875 174.597656 C 78.691406 174.597656 76.152344 177.480469 75.386719 181.375 Z M 98.058594 181.375 L 98.058594 180.285156 C 98.058594 175.222656 101.003906 171.070312 104.605469 171.070312 L 112.109375 171.070312 C 115.710938 171.070312 118.65625 175.222656 118.65625 180.285156 L 118.65625 181.375 L 118.410156 181.375 C 117.644531 177.480469 115.109375 174.597656 112.109375 174.597656 L 104.605469 174.597656 C 101.605469 174.597656 99.070312 177.480469 98.300781 181.375 Z M 120.980469 181.375 L 120.980469 180.285156 C 120.980469 175.222656 123.925781 171.070312 127.527344 171.070312 L 135.027344 171.070312 C 138.625 171.070312 141.574219 175.222656 141.574219 180.285156 L 141.574219 181.375 L 141.328125 181.375 C 140.5625 177.480469 138.023438 174.597656 135.027344 174.597656 L 127.527344 174.597656 C 124.523438 174.597656 121.984375 177.480469 121.21875 181.375 Z M 143.894531 181.375 L 143.894531 180.285156 C 143.894531 175.222656 146.839844 171.070312 150.441406 171.070312 L 157.941406 171.070312 C 161.542969 171.070312 164.488281 175.222656 164.488281 180.285156 L 164.488281 181.375 L 164.246094 181.375 C 163.480469 177.480469 160.941406 174.597656 157.941406 174.597656 L 150.441406 174.597656 C 147.4375 174.597656 144.898438 177.480469 144.136719 181.375 Z M 166.8125 181.375 L 166.8125 180.285156 C 166.8125 175.222656 169.757812 171.070312 173.359375 171.070312 L 180.859375 171.070312 C 184.460938 171.070312 187.40625 175.222656 187.40625 180.285156 L 187.40625 181.375 L 187.160156 181.375 C 186.398438 177.480469 183.863281 174.597656 180.859375 174.597656 L 173.359375 174.597656 C 170.359375 174.597656 167.816406 177.480469 167.050781 181.375 Z M 166.8125 181.375 " fill-opacity="1" fill-rule="nonzero"/></g></svg>