<svg xmlns="http://www.w3.org/2000/svg" xmlns:xlink="http://www.w3.org/1999/xlink" width="258" zoomAndPan="magnify" viewBox="0 0 193.5 181.5" height="242" preserveAspectRatio="xMidYMid meet" version="1.0"><defs><clipPath id="08bb0d6fb7"><path d="M 44.238281 56.054688 L 184 56.054688 L 184 180.960938 L 44.238281 180.960938 Z M 44.238281 56.054688 " clip-rule="nonzero"/></clipPath></defs><g clip-path="url(#08bb0d6fb7)"><path fill="#000000" d="M 176.089844 56.03125 L 93.046875 56.03125 C 92.558594 56.03125 92.074219 56.082031 91.597656 56.175781 C 91.121094 56.273438 90.65625 56.414062 90.207031 56.601562 C 89.753906 56.789062 89.328125 57.019531 88.921875 57.289062 C 88.515625 57.5625 88.140625 57.871094 87.796875 58.214844 C 87.453125 58.558594 87.144531 58.933594 86.875 59.339844 C 86.601562 59.746094 86.375 60.171875 86.1875 60.625 C 86 61.074219 85.859375 61.539062 85.761719 62.015625 C 85.664062 62.496094 85.617188 62.976562 85.613281 63.464844 L 85.613281 111.542969 C 85.617188 112.03125 85.664062 112.515625 85.761719 112.992188 C 85.859375 113.472656 86 113.9375 86.1875 114.386719 C 86.375 114.835938 86.601562 115.265625 86.875 115.671875 C 87.144531 116.074219 87.453125 116.449219 87.796875 116.796875 C 88.140625 117.140625 88.515625 117.449219 88.921875 117.71875 C 89.328125 117.992188 89.753906 118.21875 90.207031 118.40625 C 90.65625 118.59375 91.121094 118.738281 91.597656 118.832031 C 92.074219 118.929688 92.558594 118.976562 93.046875 118.980469 L 123.210938 118.980469 L 123.210938 124.40625 L 113.898438 124.65625 C 102.976562 124.925781 98.59375 135.929688 97.253906 140.566406 L 92.328125 140.566406 C 92.144531 140.113281 91.894531 139.695312 91.585938 139.316406 C 91.277344 138.9375 90.921875 138.613281 90.515625 138.34375 C 90.109375 138.070312 89.671875 137.863281 89.203125 137.722656 C 88.738281 137.582031 88.257812 137.515625 87.769531 137.515625 L 47.300781 137.515625 C 46.972656 137.515625 46.65625 137.578125 46.351562 137.703125 C 46.046875 137.828125 45.777344 138.007812 45.546875 138.242188 C 45.3125 138.472656 45.136719 138.742188 45.011719 139.046875 C 44.882812 139.351562 44.824219 139.667969 44.824219 139.996094 L 44.824219 178.507812 C 44.824219 178.835938 44.886719 179.152344 45.015625 179.457031 C 45.140625 179.757812 45.320312 180.027344 45.550781 180.257812 C 45.785156 180.492188 46.050781 180.667969 46.355469 180.796875 C 46.65625 180.921875 46.972656 180.984375 47.300781 180.988281 L 87.769531 180.988281 C 88.09375 180.988281 88.417969 180.953125 88.738281 180.890625 C 89.054688 180.828125 89.363281 180.734375 89.664062 180.609375 C 89.964844 180.484375 90.25 180.332031 90.523438 180.152344 C 90.792969 179.972656 91.042969 179.765625 91.273438 179.535156 C 91.503906 179.304688 91.707031 179.054688 91.890625 178.785156 C 92.070312 178.511719 92.222656 178.226562 92.347656 177.925781 C 92.472656 177.625 92.566406 177.316406 92.628906 176.996094 C 92.691406 176.679688 92.722656 176.355469 92.722656 176.03125 L 92.722656 172.757812 L 97.703125 172.757812 L 103.074219 178.011719 C 103.5625 178.472656 104.140625 178.707031 104.808594 178.707031 L 138.566406 178.707031 C 138.882812 178.703125 139.199219 178.679688 139.511719 178.636719 C 139.824219 178.589844 140.132812 178.527344 140.4375 178.445312 C 140.742188 178.359375 141.039062 178.257812 141.332031 178.136719 C 141.625 178.011719 141.90625 177.875 142.179688 177.714844 C 142.453125 177.558594 142.714844 177.382812 142.964844 177.1875 C 143.21875 176.996094 143.457031 176.789062 143.679688 176.566406 C 143.90625 176.34375 144.113281 176.109375 144.308594 175.859375 C 144.5 175.609375 144.679688 175.347656 144.839844 175.074219 C 145 174.804688 145.144531 174.523438 145.265625 174.230469 C 145.390625 173.941406 145.496094 173.644531 145.582031 173.339844 C 145.667969 173.035156 145.734375 172.726562 145.78125 172.414062 C 145.828125 172.101562 145.855469 171.785156 145.863281 171.46875 C 145.867188 171.152344 145.855469 170.839844 145.820312 170.523438 C 145.785156 170.210938 145.730469 169.898438 145.65625 169.589844 C 145.582031 169.285156 145.488281 168.984375 145.375 168.6875 C 145.261719 168.390625 145.132812 168.105469 144.980469 167.828125 C 145.5 167.488281 145.964844 167.09375 146.386719 166.640625 C 146.804688 166.183594 147.160156 165.6875 147.453125 165.144531 C 147.746094 164.601562 147.96875 164.03125 148.121094 163.429688 C 148.273438 162.832031 148.351562 162.222656 148.351562 161.605469 C 148.347656 160.460938 148.101562 159.371094 147.605469 158.335938 C 148.179688 158.039062 148.703125 157.671875 149.175781 157.230469 C 149.644531 156.789062 150.050781 156.296875 150.386719 155.746094 C 150.722656 155.195312 150.976562 154.609375 151.152344 153.988281 C 151.328125 153.367188 151.417969 152.734375 151.421875 152.089844 C 151.421875 150.929688 151.148438 149.839844 150.605469 148.816406 C 151.273438 148.355469 151.847656 147.800781 152.335938 147.148438 C 152.820312 146.496094 153.191406 145.785156 153.441406 145.011719 C 153.695312 144.238281 153.816406 143.445312 153.808594 142.632812 C 153.800781 141.820312 153.664062 141.027344 153.394531 140.261719 C 153.128906 139.492188 152.746094 138.789062 152.25 138.144531 C 151.75 137.503906 151.164062 136.957031 150.484375 136.507812 C 149.808594 136.058594 149.078125 135.730469 148.292969 135.519531 C 147.507812 135.3125 146.710938 135.234375 145.898438 135.285156 L 145.898438 118.980469 L 176.089844 118.980469 C 176.578125 118.976562 177.058594 118.929688 177.539062 118.832031 C 178.015625 118.738281 178.480469 118.59375 178.929688 118.40625 C 179.378906 118.21875 179.808594 117.992188 180.210938 117.71875 C 180.617188 117.449219 180.992188 117.140625 181.335938 116.796875 C 181.683594 116.449219 181.988281 116.074219 182.261719 115.671875 C 182.53125 115.265625 182.761719 114.835938 182.949219 114.386719 C 183.136719 113.9375 183.277344 113.472656 183.375 112.992188 C 183.46875 112.515625 183.519531 112.03125 183.519531 111.542969 L 183.519531 63.464844 C 183.519531 62.976562 183.46875 62.496094 183.375 62.015625 C 183.277344 61.539062 183.136719 61.074219 182.949219 60.625 C 182.761719 60.171875 182.53125 59.746094 182.261719 59.339844 C 181.988281 58.933594 181.683594 58.558594 181.335938 58.214844 C 180.992188 57.871094 180.617188 57.5625 180.210938 57.289062 C 179.808594 57.019531 179.378906 56.789062 178.929688 56.601562 C 178.480469 56.414062 178.015625 56.273438 177.539062 56.175781 C 177.058594 56.082031 176.578125 56.03125 176.089844 56.03125 Z M 96.042969 101.011719 C 98.410156 94.863281 104.632812 78.59375 107.0625 72.238281 C 107.25 71.769531 107.546875 71.390625 107.964844 71.101562 C 108.378906 70.8125 108.835938 70.664062 109.34375 70.652344 C 109.847656 70.628906 110.316406 70.75 110.742188 71.023438 C 111.171875 71.296875 111.480469 71.667969 111.671875 72.140625 C 114.421875 78.527344 121.410156 94.738281 124.078125 100.914062 C 124.199219 101.210938 124.261719 101.523438 124.261719 101.847656 C 124.261719 102.171875 124.199219 102.480469 124.078125 102.78125 C 123.957031 103.078125 123.78125 103.34375 123.554688 103.574219 C 123.328125 103.804688 123.066406 103.984375 122.769531 104.113281 C 122.472656 104.242188 122.164062 104.308594 121.839844 104.316406 C 121.519531 104.320312 121.207031 104.265625 120.90625 104.152344 C 120.605469 104.035156 120.335938 103.867188 120.101562 103.644531 C 119.863281 103.421875 119.679688 103.164062 119.546875 102.871094 L 116.003906 94.71875 L 103.769531 94.71875 L 100.671875 102.773438 C 100.550781 103.070312 100.378906 103.339844 100.152344 103.570312 C 99.925781 103.800781 99.664062 103.984375 99.367188 104.113281 C 99.070312 104.242188 98.761719 104.3125 98.4375 104.320312 C 98.113281 104.328125 97.800781 104.273438 97.496094 104.160156 C 97.195312 104.042969 96.925781 103.875 96.6875 103.65625 C 96.453125 103.433594 96.265625 103.175781 96.128906 102.882812 C 95.992188 102.589844 95.917969 102.277344 95.902344 101.957031 C 95.886719 101.632812 95.933594 101.316406 96.042969 101.011719 Z M 129.082031 101.878906 L 129.082031 73.132812 C 129.082031 72.800781 129.140625 72.484375 129.269531 72.179688 C 129.394531 71.878906 129.570312 71.609375 129.804688 71.375 C 130.035156 71.144531 130.304688 70.964844 130.609375 70.839844 C 130.914062 70.714844 131.230469 70.652344 131.558594 70.652344 L 135.621094 70.652344 C 143.71875 70.652344 150.28125 78.210938 150.28125 87.503906 C 150.28125 96.800781 143.71875 104.359375 135.621094 104.359375 L 131.558594 104.359375 C 131.230469 104.359375 130.914062 104.296875 130.609375 104.171875 C 130.304688 104.046875 130.035156 103.867188 129.804688 103.632812 C 129.570312 103.402344 129.394531 103.132812 129.269531 102.828125 C 129.140625 102.523438 129.082031 102.207031 129.082031 101.878906 Z M 163.929688 85.027344 C 176.171875 85.347656 176.171875 104.035156 163.929688 104.359375 C 163.308594 104.34375 162.691406 104.269531 162.085938 104.136719 C 161.476562 104.003906 160.890625 103.8125 160.320312 103.5625 C 159.75 103.3125 159.210938 103.007812 158.699219 102.652344 C 158.1875 102.296875 157.71875 101.894531 157.289062 101.445312 C 156.855469 100.996094 156.472656 100.511719 156.136719 99.988281 C 155.800781 99.464844 155.519531 98.910156 155.292969 98.332031 C 155.066406 97.753906 154.898438 97.15625 154.789062 96.542969 C 154.679688 95.933594 154.628906 95.316406 154.640625 94.691406 C 154.648438 94.367188 154.714844 94.058594 154.84375 93.757812 C 154.972656 93.460938 155.152344 93.199219 155.382812 92.972656 C 155.613281 92.742188 155.882812 92.570312 156.179688 92.445312 C 156.480469 92.324219 156.792969 92.261719 157.117188 92.261719 C 157.441406 92.261719 157.753906 92.324219 158.054688 92.445312 C 158.355469 92.570312 158.621094 92.742188 158.851562 92.972656 C 159.082031 93.199219 159.265625 93.460938 159.390625 93.757812 C 159.519531 94.058594 159.589844 94.367188 159.59375 94.691406 C 159.574219 94.988281 159.585938 95.285156 159.625 95.582031 C 159.664062 95.875 159.734375 96.164062 159.835938 96.445312 C 159.933594 96.726562 160.0625 96.992188 160.21875 97.25 C 160.371094 97.503906 160.550781 97.738281 160.753906 97.957031 C 160.957031 98.175781 161.179688 98.371094 161.421875 98.539062 C 161.667969 98.710938 161.925781 98.859375 162.199219 98.976562 C 162.472656 99.09375 162.753906 99.183594 163.046875 99.246094 C 163.335938 99.304688 163.632812 99.335938 163.929688 99.335938 C 164.226562 99.335938 164.519531 99.304688 164.8125 99.246094 C 165.105469 99.183594 165.386719 99.09375 165.660156 98.976562 C 165.933594 98.859375 166.191406 98.710938 166.433594 98.539062 C 166.675781 98.367188 166.902344 98.175781 167.105469 97.957031 C 167.308594 97.738281 167.484375 97.503906 167.640625 97.246094 C 167.796875 96.992188 167.921875 96.726562 168.023438 96.445312 C 168.121094 96.164062 168.191406 95.875 168.234375 95.582031 C 168.273438 95.285156 168.285156 94.988281 168.261719 94.691406 C 168.273438 94.394531 168.257812 94.101562 168.210938 93.804688 C 168.167969 93.511719 168.09375 93.226562 167.988281 92.949219 C 167.886719 92.667969 167.757812 92.402344 167.605469 92.148438 C 167.449219 91.894531 167.269531 91.660156 167.070312 91.441406 C 166.867188 91.222656 166.648438 91.023438 166.410156 90.847656 C 166.167969 90.675781 165.914062 90.523438 165.644531 90.398438 C 165.375 90.273438 165.09375 90.175781 164.808594 90.105469 C 164.519531 90.035156 164.226562 89.996094 163.929688 89.984375 C 151.683594 89.660156 151.6875 70.976562 163.929688 70.652344 C 164.550781 70.664062 165.164062 70.738281 165.773438 70.875 C 166.378906 71.007812 166.96875 71.199219 167.539062 71.449219 C 168.109375 71.699219 168.648438 72 169.15625 72.355469 C 169.667969 72.714844 170.140625 73.117188 170.570312 73.5625 C 171 74.011719 171.382812 74.5 171.71875 75.023438 C 172.054688 75.546875 172.335938 76.097656 172.5625 76.679688 C 172.789062 77.257812 172.957031 77.855469 173.070312 78.464844 C 173.179688 79.078125 173.226562 79.695312 173.214844 80.316406 C 173.210938 80.644531 173.144531 80.953125 173.015625 81.25 C 172.886719 81.550781 172.707031 81.8125 172.472656 82.039062 C 172.242188 82.265625 171.976562 82.441406 171.675781 82.566406 C 171.375 82.6875 171.0625 82.75 170.738281 82.75 C 170.414062 82.75 170.101562 82.6875 169.804688 82.566406 C 169.503906 82.441406 169.238281 82.265625 169.003906 82.039062 C 168.773438 81.8125 168.59375 81.550781 168.464844 81.25 C 168.335938 80.953125 168.269531 80.644531 168.261719 80.316406 C 168.285156 80.019531 168.273438 79.726562 168.234375 79.429688 C 168.191406 79.132812 168.121094 78.847656 168.023438 78.566406 C 167.921875 78.285156 167.796875 78.015625 167.640625 77.761719 C 167.484375 77.507812 167.308594 77.273438 167.105469 77.054688 C 166.902344 76.835938 166.675781 76.640625 166.433594 76.46875 C 166.191406 76.296875 165.933594 76.152344 165.660156 76.035156 C 165.386719 75.914062 165.105469 75.824219 164.8125 75.765625 C 164.519531 75.703125 164.226562 75.675781 163.929688 75.675781 C 163.628906 75.675781 163.335938 75.703125 163.042969 75.765625 C 162.753906 75.824219 162.472656 75.914062 162.199219 76.035156 C 161.925781 76.152344 161.667969 76.296875 161.421875 76.46875 C 161.179688 76.640625 160.957031 76.835938 160.753906 77.054688 C 160.550781 77.273438 160.371094 77.507812 160.214844 77.761719 C 160.0625 78.015625 159.933594 78.285156 159.835938 78.566406 C 159.734375 78.847656 159.664062 79.132812 159.625 79.429688 C 159.585938 79.726562 159.574219 80.019531 159.59375 80.320312 C 159.582031 80.617188 159.597656 80.910156 159.644531 81.203125 C 159.691406 81.496094 159.765625 81.785156 159.867188 82.0625 C 159.96875 82.34375 160.097656 82.609375 160.253906 82.863281 C 160.40625 83.117188 160.585938 83.351562 160.789062 83.570312 C 160.988281 83.789062 161.210938 83.984375 161.449219 84.160156 C 161.6875 84.335938 161.945312 84.488281 162.214844 84.613281 C 162.484375 84.738281 162.761719 84.832031 163.050781 84.902344 C 163.339844 84.972656 163.632812 85.015625 163.929688 85.027344 Z M 148.84375 142.324219 C 148.914062 142.648438 148.910156 142.972656 148.835938 143.292969 C 148.761719 143.613281 148.625 143.90625 148.421875 144.167969 C 148.21875 144.425781 147.96875 144.632812 147.675781 144.78125 C 147.382812 144.933594 147.070312 145.015625 146.742188 145.027344 L 141.886719 145.027344 C 141.5625 145.03125 141.25 145.101562 140.953125 145.230469 C 140.65625 145.359375 140.394531 145.539062 140.164062 145.769531 C 139.9375 146 139.765625 146.265625 139.640625 146.566406 C 139.519531 146.867188 139.457031 147.179688 139.457031 147.503906 C 139.457031 147.828125 139.519531 148.140625 139.640625 148.441406 C 139.765625 148.742188 139.9375 149.007812 140.164062 149.242188 C 140.394531 149.472656 140.65625 149.652344 140.953125 149.78125 C 141.25 149.910156 141.5625 149.976562 141.886719 149.984375 L 144.363281 149.984375 C 144.640625 149.984375 144.910156 150.035156 145.167969 150.144531 C 145.425781 150.25 145.652344 150.402344 145.851562 150.601562 C 146.046875 150.796875 146.199219 151.027344 146.308594 151.285156 C 146.414062 151.542969 146.46875 151.808594 146.46875 152.089844 C 146.46875 152.367188 146.414062 152.636719 146.308594 152.894531 C 146.199219 153.152344 146.046875 153.382812 145.851562 153.578125 C 145.652344 153.777344 145.425781 153.929688 145.167969 154.035156 C 144.910156 154.144531 144.640625 154.195312 144.363281 154.195312 L 140.003906 154.195312 C 139.679688 154.199219 139.367188 154.265625 139.066406 154.394531 C 138.765625 154.523438 138.503906 154.703125 138.273438 154.933594 C 138.046875 155.167969 137.871094 155.433594 137.746094 155.734375 C 137.625 156.035156 137.5625 156.347656 137.5625 156.675781 C 137.5625 157 137.625 157.3125 137.746094 157.613281 C 137.871094 157.917969 138.046875 158.183594 138.273438 158.414062 C 138.503906 158.648438 138.765625 158.828125 139.066406 158.953125 C 139.367188 159.082031 139.679688 159.148438 140.003906 159.152344 C 141.675781 158.941406 143.386719 159.722656 143.398438 161.605469 C 143.394531 161.933594 143.332031 162.246094 143.207031 162.542969 C 143.082031 162.84375 142.90625 163.109375 142.675781 163.339844 C 142.445312 163.570312 142.183594 163.746094 141.882812 163.871094 C 141.582031 163.996094 141.269531 164.058594 140.945312 164.058594 L 136.980469 164.058594 C 136.65625 164.066406 136.347656 164.132812 136.046875 164.261719 C 135.75 164.390625 135.488281 164.570312 135.257812 164.800781 C 135.03125 165.03125 134.855469 165.300781 134.734375 165.601562 C 134.609375 165.902344 134.550781 166.214844 134.550781 166.539062 C 134.550781 166.863281 134.609375 167.175781 134.734375 167.476562 C 134.855469 167.777344 135.03125 168.042969 135.257812 168.273438 C 135.488281 168.507812 135.75 168.6875 136.046875 168.816406 C 136.347656 168.945312 136.65625 169.011719 136.980469 169.015625 L 138.566406 169.015625 C 138.878906 169.019531 139.175781 169.082031 139.460938 169.207031 C 139.75 169.328125 140 169.5 140.21875 169.722656 C 140.4375 169.941406 140.605469 170.195312 140.722656 170.484375 C 140.839844 170.773438 140.898438 171.070312 140.898438 171.382812 C 140.898438 171.695312 140.839844 171.992188 140.722656 172.28125 C 140.605469 172.570312 140.4375 172.824219 140.21875 173.046875 C 140 173.265625 139.75 173.4375 139.460938 173.5625 C 139.175781 173.683594 138.878906 173.746094 138.566406 173.75 L 105.800781 173.75 L 100.425781 168.496094 C 99.945312 168.023438 99.367188 167.792969 98.691406 167.800781 L 92.722656 167.800781 L 92.722656 145.523438 L 99.164062 145.523438 C 99.449219 145.519531 99.730469 145.472656 100.003906 145.375 C 100.273438 145.277344 100.519531 145.136719 100.746094 144.953125 C 100.96875 144.769531 101.152344 144.554688 101.304688 144.308594 C 101.453125 144.0625 101.554688 143.796875 101.613281 143.515625 C 101.640625 143.390625 104.4375 129.835938 114.023438 129.613281 L 123.210938 129.386719 L 123.210938 135.285156 L 114.417969 135.285156 C 114.089844 135.285156 113.773438 135.351562 113.472656 135.476562 C 113.167969 135.601562 112.898438 135.78125 112.667969 136.011719 C 112.4375 136.246094 112.257812 136.511719 112.132812 136.816406 C 112.003906 137.121094 111.941406 137.4375 111.941406 137.765625 C 111.941406 138.09375 112.003906 138.410156 112.132812 138.714844 C 112.257812 139.015625 112.4375 139.285156 112.667969 139.515625 C 112.898438 139.75 113.167969 139.929688 113.472656 140.054688 C 113.773438 140.179688 114.089844 140.242188 114.417969 140.242188 L 146.742188 140.242188 C 147.019531 140.242188 147.285156 140.292969 147.542969 140.398438 C 147.796875 140.503906 148.023438 140.65625 148.222656 140.847656 C 148.417969 141.042969 148.570312 141.269531 148.679688 141.527344 C 148.789062 141.78125 148.84375 142.046875 148.84375 142.324219 Z M 148.84375 142.324219 " fill-opacity="1" fill-rule="nonzero"/></g><path fill="#000000" d="M 109.515625 79.699219 L 105.652344 89.761719 L 113.875 89.761719 Z M 109.515625 79.699219 " fill-opacity="1" fill-rule="nonzero"/><path fill="#000000" d="M 145.328125 87.503906 C 145.289062 80.171875 140.222656 74.902344 134.035156 75.609375 L 134.035156 99.402344 L 135.621094 99.402344 C 140.96875 99.402344 145.328125 94.074219 145.328125 87.503906 Z M 145.328125 87.503906 " fill-opacity="1" fill-rule="nonzero"/></svg>